<svg width="82" height="82" viewBox="0 0 82 82" fill="none" xmlns="http://www.w3.org/2000/svg">
<circle cx="41" cy="41" r="41" fill="#FFA500"/>
<path fill-rule="evenodd" clip-rule="evenodd" d="M53.5778 32.3807H48.5477V27.2057C48.5477 24.3476 46.2956 22.0306 43.5175 22.0306H26.7672C23.9892 22.0306 21.7371 24.3476 21.7371 27.2057V44.4444C21.7371 47.3025 23.9892 49.6194 26.7672 49.6194H31.7974V54.7944C31.7974 57.6525 34.0494 59.9694 36.8275 59.9694H53.5836C56.3616 59.9694 58.6137 57.6525 58.6137 54.7944V37.5453C58.6137 34.6873 56.3616 32.3703 53.5836 32.3703L53.5778 32.3807ZM25.0929 44.4488V27.2056C25.0929 26.2535 25.8431 25.4816 26.7686 25.4816L43.5247 25.4816C44.4502 25.4816 45.2004 26.2535 45.2004 27.2056V44.4444C45.2004 45.3965 44.4502 46.1684 43.5247 46.1684L26.7672 46.1684C25.8417 46.1684 25.0915 45.3965 25.0915 44.4444L25.0929 44.4488ZM55.2535 54.7989C55.2535 55.751 54.5033 56.5229 53.5777 56.5229H36.8203C35.8947 56.5229 35.1445 55.751 35.1445 54.7989V49.6239H43.5233C46.3013 49.6239 48.5534 47.3069 48.5534 44.4488V35.8287H53.5835C54.5091 35.8288 55.2593 36.6006 55.2593 37.5528L55.2535 54.7989Z" fill="#3A5BA0"/>
</svg>
