<svg width="83" height="83" viewBox="0 0 83 83" fill="none" xmlns="http://www.w3.org/2000/svg">
<circle cx="41.2241" cy="41.1228" r="41" fill="#FFA500"/>
<path fill-rule="evenodd" clip-rule="evenodd" d="M58.6719 29.8476L44.11 21.7777C42.2391 20.7408 39.8579 20.7408 37.987 21.7777L23.4251 29.8476C21.3444 30.6554 20.0014 32.4672 20 34.4681V52.4042C20 55.1953 22.5717 57.4579 25.744 57.4579H56.3595C59.5318 57.4579 62.1034 55.1953 62.1034 52.4042V34.4623C62.102 32.4615 60.759 30.6497 58.6783 29.8419L58.6719 29.8476ZM40.0352 24.6425C40.6555 24.3009 41.4432 24.3009 42.0636 24.6425L56.6828 32.7283L41.0509 40.381L25.419 32.7283L40.0352 24.6425ZM56.3563 54.0893H25.7408C25.2329 54.0894 24.7461 53.9118 24.3871 53.5958C24.0281 53.2797 23.8268 52.8511 23.8272 52.4043V35.7994L40.1106 43.7683V43.7683C40.2029 43.8092 40.2991 43.843 40.3978 43.8694H40.5619C40.715 43.9271 40.876 43.9669 41.0411 43.9878C41.1998 44.0051 41.36 44.0051 41.5187 43.9878H41.6828C41.7817 43.9613 41.8777 43.9275 41.9701 43.8867L58.2534 35.8009V52.4057C58.2534 53.3358 57.397 54.09 56.3398 54.0907L56.3563 54.0893Z" fill="white"/>
</svg>
