<svg width="38" height="9" viewBox="0 0 38 9" fill="none" xmlns="http://www.w3.org/2000/svg">
<path fill-rule="evenodd" clip-rule="evenodd" d="M29.1322 4.85225C29.1322 2.68019 30.9009 0.919403 33.0827 0.919403C35.2646 0.919403 37.0333 2.68019 37.0333 4.85225C37.0333 7.02431 35.2646 8.7851 33.0827 8.7851C30.9009 8.7851 29.1322 7.02431 29.1322 4.85225V4.85225ZM14.6467 4.85225C14.6467 2.68019 16.4154 0.919403 18.5973 0.919403C20.7791 0.919403 22.5478 2.68019 22.5478 4.85225C22.5478 7.02431 20.7791 8.7851 18.5973 8.7851C16.4154 8.7851 14.6467 7.02431 14.6467 4.85225V4.85225ZM0.161194 4.85228C0.161194 2.68022 1.92992 0.919434 4.11178 0.919434C6.29363 0.919434 8.06236 2.68022 8.06236 4.85228C8.06236 7.02434 6.29363 8.78513 4.11178 8.78513C1.92992 8.78513 0.161194 7.02434 0.161194 4.85228V4.85228Z" fill="#99B2C6"/>
</svg>
