<svg width="30" height="30" viewBox="0 0 30 30" fill="none" xmlns="http://www.w3.org/2000/svg">
<path d="M13.497 3.57631C13.91 3.20526 14.4456 3 15.0007 3C15.5559 3 16.0915 3.20526 16.5045 3.57631L24.7545 10.9893C24.9891 11.2002 25.1767 11.4582 25.3051 11.7463C25.4335 12.0344 25.4999 12.3463 25.5 12.6618V23.2443C25.5 23.841 25.2629 24.4133 24.841 24.8353C24.419 25.2573 23.8467 25.4943 23.25 25.4943H19.5C18.9033 25.4943 18.331 25.2573 17.909 24.8353C17.4871 24.4133 17.25 23.841 17.25 23.2443V17.9943C17.25 17.7954 17.171 17.6046 17.0303 17.464C16.8897 17.3233 16.6989 17.2443 16.5 17.2443H13.5C13.3011 17.2443 13.1103 17.3233 12.9697 17.464C12.829 17.6046 12.75 17.7954 12.75 17.9943V23.2443C12.75 23.841 12.5129 24.4133 12.091 24.8353C11.669 25.2573 11.0967 25.4943 10.5 25.4943H6.75C6.15326 25.4943 5.58097 25.2573 5.15901 24.8353C4.73705 24.4133 4.5 23.841 4.5 23.2443V12.6618C4.5 12.0243 4.77 11.4168 5.247 10.9893L13.497 3.57631ZM15.501 4.69231C15.3634 4.56877 15.1849 4.50043 15 4.50043C14.8151 4.50043 14.6366 4.56877 14.499 4.69231L6.249 12.1053C6.17085 12.1755 6.1083 12.2613 6.0654 12.3571C6.02251 12.453 6.00023 12.5568 6 12.6618V23.2443C6 23.4432 6.07902 23.634 6.21967 23.7746C6.36032 23.9153 6.55109 23.9943 6.75 23.9943H10.5C10.6989 23.9943 10.8897 23.9153 11.0303 23.7746C11.171 23.634 11.25 23.4432 11.25 23.2443V17.9943C11.25 17.3976 11.4871 16.8253 11.909 16.4033C12.331 15.9814 12.9033 15.7443 13.5 15.7443H16.5C17.0967 15.7443 17.669 15.9814 18.091 16.4033C18.5129 16.8253 18.75 17.3976 18.75 17.9943V23.2443C18.75 23.4432 18.829 23.634 18.9697 23.7746C19.1103 23.9153 19.3011 23.9943 19.5 23.9943H23.25C23.4489 23.9943 23.6397 23.9153 23.7803 23.7746C23.921 23.634 24 23.4432 24 23.2443V12.6618C23.9998 12.5568 23.9775 12.453 23.9346 12.3571C23.8917 12.2613 23.8292 12.1755 23.751 12.1053L15.501 4.69231Z" fill="black"/>
</svg>
