<svg width="49" height="40" viewBox="0 0 49 40" fill="none" xmlns="http://www.w3.org/2000/svg">
<path fill-rule="evenodd" clip-rule="evenodd" d="M11.3471 40C4.87875 40 0 35.1653 0 28.7557V17.0948C0 10.6851 4.87896 5.85199 11.3471 5.85199H29.5214C32.6847 5.88853 35.6916 7.12289 37.834 9.26431C39.9762 11.4214 41.0818 14.2825 40.9004 17.1997V28.7556C41.058 31.6395 39.9516 34.4609 37.8289 36.5877C35.6914 38.7248 32.6926 39.9587 29.5363 40L11.3471 40ZM3.8544 17.0948V28.7557C3.8544 33.2016 7.00314 36.4273 11.3471 36.4273H29.5214C31.6104 36.3943 33.5931 35.5746 35.0072 34.1596C36.4355 32.7187 37.1729 30.8092 37.0526 28.8621V17.0948C37.196 15.1147 36.459 13.1659 35.0104 11.6956C33.5911 10.2752 31.5993 9.45459 29.5025 9.42632L11.3502 9.42633C7.00478 9.42479 3.8544 12.6443 3.8544 17.0948ZM16.6501 25.1165L8.34431 18.9737C7.51236 18.3548 7.37626 17.235 8.03937 16.4623C8.35741 16.0933 8.82179 15.856 9.33038 15.803C9.83876 15.7501 10.3492 15.8857 10.7487 16.18L19.041 22.3151C19.4505 22.6143 19.9579 22.7774 20.481 22.7779C21.0111 22.7789 21.526 22.6159 21.9431 22.3151L30.145 16.1954C30.4847 15.9388 30.9108 15.7987 31.3505 15.799C31.938 15.7978 32.4939 16.0439 32.8596 16.4669C33.5266 17.2366 33.3957 18.3567 32.5662 18.9783L24.3506 25.1119C22.1038 26.7646 18.9145 26.771 16.66 25.1273L16.6501 25.1165Z" fill="#8FABC1"/>
<ellipse cx="37.7788" cy="10.4845" rx="6.70639" ry="6.17058" fill="#0090FF"/>
<ellipse cx="37.7787" cy="10.4846" rx="9.22129" ry="8.48455" stroke="#F7F8FA" stroke-width="3" stroke-linejoin="round"/>
</svg>
