<svg width="30" height="30" viewBox="0 0 30 30" fill="none" xmlns="http://www.w3.org/2000/svg">
<g clip-path="url(#clip0_19_91)">
<path d="M2.5 15L8.75 20V16.25H20V13.75H8.75V10L2.5 15Z" fill="white"/>
<path d="M16.2513 3.7487C14.7732 3.7446 13.309 4.03384 11.9434 4.59965C10.5779 5.16547 9.33827 5.99662 8.29626 7.04495L10.0638 8.81245C11.7163 7.15995 13.9138 6.2487 16.2513 6.2487C18.5888 6.2487 20.7863 7.15995 22.4388 8.81245C24.0913 10.465 25.0025 12.6625 25.0025 15C25.0025 17.3375 24.0913 19.535 22.4388 21.1875C20.7863 22.84 18.5888 23.7512 16.2513 23.7512C13.9138 23.7512 11.7163 22.84 10.0638 21.1875L8.29626 22.955C10.42 25.08 13.245 26.2512 16.2513 26.2512C19.2575 26.2512 22.0825 25.08 24.2063 22.955C26.3313 20.8312 27.5025 18.0062 27.5025 15C27.5025 11.9937 26.3313 9.1687 24.2063 7.04495C23.1643 5.99662 21.9246 5.16547 20.5591 4.59965C19.1936 4.03384 17.7294 3.7446 16.2513 3.7487Z" fill="white"/>
</g>
<defs>
<clipPath id="clip0_19_91">
<rect width="30" height="30" fill="white"/>
</clipPath>
</defs>
</svg>
