<svg width="82" height="82" viewBox="0 0 82 82" fill="none" xmlns="http://www.w3.org/2000/svg">
<circle cx="41" cy="41" r="41" fill="#FFA500"/>
<path fill-rule="evenodd" clip-rule="evenodd" d="M48.723 61.6413C48.1853 61.3001 47.8542 60.6689 47.8546 59.986V44.5107C43.8054 43.6102 40.8939 39.694 40.8939 35.1481C40.8939 30.6021 43.8054 26.686 47.8546 25.7854V21.7732C47.8547 21.0896 48.1861 20.4579 48.7242 20.116C49.2621 19.7742 49.925 19.7742 50.463 20.116C51.0011 20.4579 51.3324 21.0896 51.3324 21.7732V25.7854C55.379 26.6893 58.2871 30.6043 58.2871 35.1481C58.2871 39.6918 55.379 43.6068 51.3324 44.5107V59.9859C51.3313 60.6689 50.9997 61.2994 50.4621 61.6407C49.9245 61.982 49.2624 61.9822 48.7246 61.6413H48.723ZM45.9035 31.0957C44.1397 33.0323 43.8648 36.0705 45.2472 38.3517C46.6296 40.6329 49.284 41.5216 51.5866 40.474C53.8894 39.4265 55.1987 36.7347 54.7137 34.0452C54.2287 31.3558 52.0845 29.418 49.5929 29.4174C48.2122 29.4177 46.888 30.0207 45.911 31.0941L45.9035 31.0957ZM31.3386 61.6413C30.8001 61.3007 30.4683 60.6693 30.4688 59.9859V55.9737C26.4186 55.0749 23.5057 51.1586 23.5057 46.6119C23.5057 42.0652 26.4186 38.1489 30.4688 37.25V21.7732C30.4689 21.0896 30.8002 20.4579 31.3383 20.116C31.8763 19.7742 32.5392 19.7742 33.0772 20.116C33.6152 20.4579 33.9466 21.0896 33.9466 21.7732V37.25C37.9967 38.1489 40.9097 42.0652 40.9097 46.6118C40.9097 51.1585 37.9967 55.0748 33.9466 55.9737V59.9859C33.9455 60.6688 33.6139 61.2994 33.0763 61.6407C32.5386 61.9819 31.8766 61.9821 31.3388 61.6413H31.3386ZM28.5191 42.5604C26.7598 44.4945 26.4871 47.5269 27.8677 49.803C29.2483 52.0792 31.8978 52.9653 34.1958 51.9194C36.4939 50.8736 37.8007 48.1871 37.3169 45.5027C36.8332 42.8184 34.6938 40.8838 32.2069 40.882C30.8271 40.8823 29.504 41.4854 28.5281 42.5587L28.5191 42.5604Z" fill="#3A5BA0"/>
</svg>
