<svg width="30" height="25" viewBox="0 0 30 25" fill="none" xmlns="http://www.w3.org/2000/svg">
<path fill-rule="evenodd" clip-rule="evenodd" d="M4.5841 24.2044C2.41671 24.1871 0.671133 22.4293 0.678367 20.2716V4.56253C0.678367 4.54285 0.678367 4.52316 0.678367 4.50356C0.689941 2.35935 2.43038 0.622562 4.5841 0.606079H25.4182C27.5624 0.622402 29.2989 2.34518 29.3225 4.47996C29.3227 4.51404 29.3227 4.54813 29.3227 4.58221V20.2716C29.3307 22.4296 27.5846 24.1878 25.4169 24.2044H4.5841ZM3.28176 20.2715C3.28176 20.99 3.86255 21.5746 4.58416 21.5825H25.4183C26.1394 21.5738 26.7194 20.9894 26.7194 20.2715V7.05713L15.7472 14.7918C15.3002 15.108 14.7009 15.108 14.2539 14.7918L3.28176 7.05713V20.2715ZM15.0018 12.1174L26.5822 3.95681C26.3634 3.51561 25.9136 3.23468 25.4193 3.2306L4.58523 3.23052C4.09044 3.2342 3.64002 3.51521 3.42108 3.95689L15.0018 12.1174Z" fill="#809FB8"/>
</svg>
