<svg width="46" height="44" viewBox="0 0 46 44" fill="none" xmlns="http://www.w3.org/2000/svg">
<path fill-rule="evenodd" clip-rule="evenodd" d="M32.4351 28.188V19.6409C32.3213 13.9737 27.2256 9.43338 20.9784 9.43337C14.7312 9.43335 9.63546 13.9736 9.52162 19.6409L9.52185 28.188C9.52346 29.3898 9.1709 30.5702 8.50073 31.6068H33.4581C32.7872 30.5704 32.434 29.39 32.4351 28.188ZM40.0729 35.0256H1.88401C1.21085 35.0256 0.588983 34.6997 0.25252 34.1709C-0.0841733 33.642 -0.0841733 32.9903 0.25252 32.4614C0.588983 31.9325 1.21085 31.6067 1.88401 31.6067C3.97868 31.619 5.68814 30.0886 5.70262 28.1879L5.70285 19.6408C5.83578 12.0723 12.6359 6 20.9785 6C29.3211 6 36.1212 12.0723 36.2538 19.6408V28.1879C36.2683 30.0886 37.9778 31.619 40.0725 31.6067C40.7456 31.6067 41.3675 31.9324 41.7042 32.4613C42.0409 32.9901 42.0409 33.6417 41.7044 34.1707C41.368 34.6996 40.7461 35.0255 40.0729 35.0256ZM25.9334 41.0085C24.8934 42.593 23.011 43.5639 20.9785 43.5639C18.9459 43.5639 17.0635 42.593 16.0235 41.0085C15.685 40.4767 15.6871 39.8211 16.0286 39.291C16.3701 38.7608 16.9989 38.4377 17.6757 38.4444H24.2828C24.9592 38.4382 25.5873 38.7616 25.9286 39.2916C26.2697 39.8216 26.2715 40.477 25.9332 41.0085H25.9334Z" fill="#809FB8"/>
<ellipse cx="33.362" cy="11.4017" rx="7.53604" ry="6.83766" fill="#0090FF"/>
<ellipse cx="33.3621" cy="11.4018" rx="10.3621" ry="9.40178" stroke="#F7F8FA" stroke-width="3" stroke-linejoin="round"/>
</svg>
