<svg width="30" height="31" viewBox="0 0 30 31" fill="none" xmlns="http://www.w3.org/2000/svg">
<path d="M11.5625 28L11.0625 24C10.7917 23.8958 10.5367 23.7708 10.2975 23.625C10.0575 23.4792 9.82292 23.3229 9.59375 23.1562L5.875 24.7188L2.4375 18.7812L5.65625 16.3438C5.63542 16.1979 5.625 16.0571 5.625 15.9212V15.0775C5.625 14.9425 5.63542 14.8021 5.65625 14.6562L2.4375 12.2188L5.875 6.28125L9.59375 7.84375C9.82292 7.67708 10.0625 7.52083 10.3125 7.375C10.5625 7.22917 10.8125 7.10417 11.0625 7L11.5625 3H18.4375L18.9375 7C19.2083 7.10417 19.4637 7.22917 19.7038 7.375C19.9429 7.52083 20.1771 7.67708 20.4063 7.84375L24.125 6.28125L27.5625 12.2188L24.3438 14.6562C24.3646 14.8021 24.375 14.9425 24.375 15.0775V15.9212C24.375 16.0571 24.3542 16.1979 24.3125 16.3438L27.5312 18.7812L24.0937 24.7188L20.4063 23.1562C20.1771 23.3229 19.9375 23.4792 19.6875 23.625C19.4375 23.7708 19.1875 23.8958 18.9375 24L18.4375 28H11.5625ZM15.0625 19.875C16.2708 19.875 17.3021 19.4479 18.1562 18.5938C19.0104 17.7396 19.4375 16.7083 19.4375 15.5C19.4375 14.2917 19.0104 13.2604 18.1562 12.4062C17.3021 11.5521 16.2708 11.125 15.0625 11.125C13.8333 11.125 12.7967 11.5521 11.9525 12.4062C11.1092 13.2604 10.6875 14.2917 10.6875 15.5C10.6875 16.7083 11.1092 17.7396 11.9525 18.5938C12.7967 19.4479 13.8333 19.875 15.0625 19.875ZM15.0625 17.375C14.5417 17.375 14.0992 17.1925 13.735 16.8275C13.37 16.4633 13.1875 16.0208 13.1875 15.5C13.1875 14.9792 13.37 14.5367 13.735 14.1725C14.0992 13.8075 14.5417 13.625 15.0625 13.625C15.5833 13.625 16.0262 13.8075 16.3913 14.1725C16.7554 14.5367 16.9375 14.9792 16.9375 15.5C16.9375 16.0208 16.7554 16.4633 16.3913 16.8275C16.0262 17.1925 15.5833 17.375 15.0625 17.375ZM13.75 25.5H16.2188L16.6562 22.1875C17.3021 22.0208 17.9012 21.7758 18.4538 21.4525C19.0054 21.13 19.5104 20.7396 19.9688 20.2812L23.0625 21.5625L24.2812 19.4375L21.5938 17.4062C21.6979 17.1146 21.7708 16.8071 21.8125 16.4837C21.8542 16.1613 21.875 15.8333 21.875 15.5C21.875 15.1667 21.8542 14.8383 21.8125 14.515C21.7708 14.1925 21.6979 13.8854 21.5938 13.5938L24.2812 11.5625L23.0625 9.4375L19.9688 10.75C19.5104 10.2708 19.0054 9.86958 18.4538 9.54625C17.9012 9.22375 17.3021 8.97917 16.6562 8.8125L16.25 5.5H13.7812L13.3438 8.8125C12.6979 8.97917 12.0992 9.22375 11.5475 9.54625C10.995 9.86958 10.4896 10.2604 10.0312 10.7188L6.9375 9.4375L5.71875 11.5625L8.40625 13.5625C8.30208 13.875 8.22917 14.1875 8.1875 14.5C8.14583 14.8125 8.125 15.1458 8.125 15.5C8.125 15.8333 8.14583 16.1562 8.1875 16.4688C8.22917 16.7812 8.30208 17.0938 8.40625 17.4062L5.71875 19.4375L6.9375 21.5625L10.0312 20.25C10.4896 20.7292 10.995 21.13 11.5475 21.4525C12.0992 21.7758 12.6979 22.0208 13.3438 22.1875L13.75 25.5Z" fill="white"/>
</svg>
