<svg width="33" height="33" viewBox="0 0 33 33" fill="none" xmlns="http://www.w3.org/2000/svg">
<path fill-rule="evenodd" clip-rule="evenodd" d="M12.678 28.2045C12.6899 27.7974 12.431 27.4312 12.0419 27.3051C11.7269 27.1658 11.3584 27.229 11.1083 27.4652L11.0307 27.5425C10.0329 28.5374 8.57746 28.9265 7.21318 28.5633C5.84874 28.2 4.78297 27.1395 4.41726 25.7814C4.05156 24.4234 4.44154 22.9744 5.44043 21.9804L5.50907 21.9108C5.74731 21.6617 5.81562 21.2963 5.68349 20.9787C5.55119 20.6611 5.24336 20.4508 4.89807 20.4425H4.67157C3.26019 20.4425 1.95603 19.6929 1.25034 18.4761C0.544484 17.2592 0.544484 15.7601 1.25034 14.5432C1.95603 13.3264 3.26019 12.5768 4.67157 12.5768C5.07987 12.5882 5.44702 12.3304 5.5737 11.9437C5.71419 11.6296 5.65086 11.2622 5.41311 11.0128L5.33546 10.9355C4.33705 9.94162 3.94691 8.49289 4.31213 7.13505C4.67752 5.77721 5.74264 4.71655 7.1066 4.35256C8.4704 3.98858 9.92583 4.37665 10.9244 5.3705L10.9927 5.43867C11.243 5.68224 11.6169 5.74977 11.937 5.6091C12.0217 5.57222 12.1099 5.54405 12.2003 5.52517C12.4327 5.36826 12.5726 5.10742 12.5742 4.82777L12.5743 4.60741C12.5743 3.20236 13.3273 1.90398 14.5496 1.20145C15.772 0.49893 17.2779 0.49893 18.5002 1.20145C19.7226 1.90398 20.4755 3.20236 20.4755 4.60741V4.72015C20.4818 5.06253 20.6891 5.36946 21.0053 5.50436C21.3217 5.63927 21.6879 5.5771 21.9412 5.34538L22.0189 5.26808C23.017 4.27343 24.4724 3.88456 25.8367 4.24823C27.2009 4.61181 28.2666 5.67255 28.6319 7.03071C28.9973 8.38879 28.6069 9.83784 27.6078 10.8315L27.5392 10.8999C27.2945 11.149 27.2268 11.5212 27.3681 11.8399C27.4053 11.9241 27.4334 12.012 27.4524 12.1021C27.6094 12.3335 27.8708 12.4732 28.1515 12.4757H28.3754C29.7868 12.4757 31.0909 13.2252 31.7966 14.4421C32.5025 15.6589 32.5025 17.1581 31.7966 18.3749C31.0909 19.5918 29.7868 20.3414 28.3754 20.3414H28.2621C27.9182 20.3476 27.6099 20.554 27.4742 20.8688C27.3387 21.1836 27.4012 21.5482 27.6338 21.8005L27.7115 21.8778C28.7105 22.8714 29.1012 24.3204 28.7359 25.6785C28.3706 27.0367 27.3051 28.0975 25.9408 28.4613C24.5765 28.825 23.1211 28.4363 22.1229 27.4417L22.0542 27.3733C21.8039 27.1361 21.4366 27.0682 21.1174 27.2002C20.7983 27.3321 20.5872 27.639 20.5793 27.983V28.2045C20.5793 29.6095 19.8264 30.9079 18.6041 31.6104C17.3817 32.313 15.8758 32.313 14.6535 31.6104C13.4311 30.9079 12.6782 29.6095 12.6782 28.2045H12.678ZM13.0282 24.8758C14.3819 25.3746 15.2892 26.6496 15.3128 28.0863L15.313 28.2043C15.313 28.9284 15.9026 29.5153 16.6298 29.5153C17.3571 29.5153 17.9467 28.9284 17.9467 28.2043V27.9749C17.9567 26.5739 18.8072 25.3145 20.1067 24.7763C21.4062 24.2382 22.9029 24.5257 23.9081 25.5065L23.9872 25.5851C24.5024 26.0976 25.3376 26.0974 25.8525 25.5844C26.3674 25.0714 26.3671 24.2401 25.8519 23.7275L25.7623 23.6383C24.768 22.626 24.4903 21.1141 25.0605 19.817V19.8142C25.6112 18.5445 26.8659 17.7208 28.2553 17.7167H28.3737C29.101 17.7167 29.6906 17.1298 29.6906 16.4058C29.6906 15.6817 29.101 15.0948 28.3737 15.0948H28.1432C26.7521 15.0891 25.4973 14.2613 24.9498 12.9881C24.9011 12.8776 24.8687 12.7606 24.8536 12.6407C24.4154 11.3887 24.7294 9.99769 25.6635 9.05265L25.7426 8.974C26.0756 8.64234 26.2059 8.15897 26.0838 7.70593C25.9618 7.25297 25.6063 6.89915 25.1512 6.77785C24.6961 6.65655 24.2106 6.78625 23.8776 7.11799L23.7883 7.20681C22.7793 8.18306 21.2819 8.46447 19.985 7.92157C18.6879 7.37868 17.8424 6.11662 17.8374 4.71597V4.60723C17.8374 3.88319 17.2478 3.29628 16.5205 3.29628C15.7933 3.29628 15.2037 3.88319 15.2037 4.60723V4.83535C15.1985 6.21983 14.3675 7.46909 13.089 8.01431C12.9781 8.0624 12.8611 8.09464 12.7411 8.11009C11.4834 8.54712 10.0857 8.23443 9.13682 7.30386L9.05645 7.22649C8.54157 6.71424 7.70696 6.71448 7.1924 7.22713C6.67784 7.7397 6.67816 8.57057 7.19304 9.08281L7.28258 9.17195C8.26701 10.1614 8.55507 11.6442 8.01206 12.9278C7.51084 14.2748 6.23111 15.1777 4.78839 15.2023H4.67152C3.94429 15.2023 3.35466 15.7892 3.35466 16.5132C3.35466 17.2373 3.94429 17.8242 4.67152 17.8242H4.90059C6.30763 17.8341 7.57257 18.6803 8.11333 19.9736C8.65409 21.2669 8.36603 22.7566 7.3816 23.7575L7.30122 23.8375C6.78666 24.3504 6.78731 25.1815 7.30251 25.6938C7.81787 26.206 8.65264 26.2054 9.1672 25.6925L9.25674 25.6033C9.91276 24.9651 10.7929 24.6067 11.7101 24.6043C12.1633 24.6023 12.6117 24.6948 13.027 24.8757L13.0282 24.8758ZM11.2558 16.4059C11.2558 13.5099 13.6142 11.1621 16.5233 11.1621C19.4323 11.1621 21.7907 13.5098 21.7907 16.4059C21.7907 19.3019 19.4323 21.6497 16.5233 21.6497C13.6142 21.6497 11.2558 19.302 11.2558 16.4059V16.4059ZM13.8896 16.4058C13.8896 17.8538 15.0687 19.0277 16.5233 19.0277C17.9779 19.0277 19.157 17.8538 19.157 16.4058C19.157 14.9578 17.9779 13.7839 16.5233 13.7839C15.0687 13.7839 13.8896 14.9578 13.8896 16.4058V16.4058ZM25.0631 19.8143V21.1253V21.1253V19.8143Z" fill="#809FB8"/>
</svg>
