<svg width="27" height="32" viewBox="0 0 27 32" fill="none" xmlns="http://www.w3.org/2000/svg">
<path d="M24.4038 4.21053L18.6923 4.21053V3.15789C18.6923 1.41382 17.2975 0 15.5769 0L11.4231 0C9.70248 0 8.30769 1.41382 8.30769 3.15789V4.21053L2.59615 4.21053C1.16236 4.21053 0 5.38875 0 6.84211L0 8.94737C0 9.52875 0.464906 10 1.03846 10L25.9615 10C26.5351 10 27 9.52875 27 8.94737V6.84211C27 5.38875 25.8376 4.21053 24.4038 4.21053ZM10.3846 3.15789C10.3846 2.57763 10.8506 2.10526 11.4231 2.10526L15.5769 2.10526C16.1494 2.10526 16.6154 2.57763 16.6154 3.15789V4.21053H10.3846V3.15789Z" fill="white"/>
<path d="M3.32025 12.0005C3.15638 12.0002 3.02555 12.1439 3.03307 12.3159L3.76266 29.0258C3.83008 30.5723 5.0369 31.7854 6.50979 31.7879L20.4569 31.8113C21.9298 31.8138 23.1407 30.6048 23.2133 29.0585L23.9991 12.3511C24.0072 12.1791 23.8769 12.035 23.713 12.0347L3.32025 12.0005ZM17.1862 14.4362C17.1871 13.9031 17.5988 13.4719 18.1062 13.4728C18.6136 13.4736 19.0239 13.9061 19.023 14.4393L19.0019 26.984C19.001 27.5171 18.5893 27.9482 18.0819 27.9474C17.5745 27.9465 17.1642 27.514 17.1651 26.9809L17.1862 14.4362ZM12.5942 14.4285C12.5951 13.8953 13.0068 13.4642 13.5142 13.4651C14.0216 13.4659 14.4319 13.8984 14.431 14.4316L14.4099 26.9763C14.409 27.5094 13.9973 27.9405 13.4898 27.9397C12.9824 27.9388 12.5722 27.5063 12.5731 26.9732L12.5942 14.4285ZM8.00213 14.4208C8.00303 13.8876 8.41474 13.4565 8.92216 13.4574C9.42958 13.4582 9.83984 13.8907 9.83894 14.4239L9.81785 26.9685C9.81695 27.5017 9.40524 27.9328 8.89782 27.932C8.3904 27.9311 7.98014 27.4986 7.98104 26.9655L8.00213 14.4208Z" fill="white"/>
</svg>
